<?xml version="1.0" encoding="UTF-8"?>
<svg width="512px" height="512px" viewBox="0 0 512 512" version="1.1" xmlns="http://www.w3.org/2000/svg">
    <g stroke="none" stroke-width="1" fill="none" fill-rule="evenodd">
        <!-- Globe -->
        <circle fill="#1A365D" cx="256" cy="256" r="200"></circle>
        <path d="M156,106 Q306,156 356,256 Q406,356 356,406" stroke="#4299E1" stroke-width="4"></path>
        <path d="M156,156 Q256,106 356,156 Q456,206 356,356" stroke="#4299E1" stroke-width="4"></path>
        <path d="M106,256 Q206,156 256,256 Q306,356 406,256" stroke="#4299E1" stroke-width="4"></path>
        <path d="M156,356 Q256,406 356,356" stroke="#4299E1" stroke-width="4"></path>
        <path d="M256,56 L256,456" stroke="#4299E1" stroke-width="4"></path>
        <path d="M56,256 L456,256" stroke="#4299E1" stroke-width="4"></path>

        <!-- Airplane -->
        <path d="M400,140 L420,120 L380,100 L300,180 L190,210 L150,250 L170,270 L230,250 L260,280 L280,270 L260,240 L310,220 L400,140" fill="#EDF2F7" transform="rotate(15, 256, 256)"></path>
        <path d="M400,140 L420,120 L380,100 L300,180 L190,210 L150,250 L170,270 L230,250 L260,280 L280,270 L260,240 L310,220 L400,140" stroke="#4299E1" stroke-width="2" transform="rotate(15, 256, 256)"></path>

        <!-- Trail -->
        <path d="M150,240 Q130,260 110,270 Q90,280 70,285" stroke="#EDF2F7" stroke-width="3" stroke-dasharray="5,8" transform="rotate(15, 256, 256)"></path>
    </g>
</svg>
