<?xml version="1.0" encoding="UTF-8"?>
<svg width="100" height="100" viewBox="0 0 100 100" version="1.1" xmlns="http://www.w3.org/2000/svg">
    <g stroke="none" stroke-width="1" fill="none" fill-rule="evenodd" opacity="0.1">
        <path d="M50,20 L60,30 L50,40 L40,30 Z" fill="#4299E1"></path>
        <path d="M50,60 L60,70 L50,80 L40,70 Z" fill="#4299E1"></path>
        <path d="M10,40 L20,50 L10,60 L0,50 Z" fill="#4299E1"></path>
        <path d="M90,40 L100,50 L90,60 L80,50 Z" fill="#4299E1"></path>
        <circle cx="10" cy="10" r="2" fill="#4299E1"></circle>
        <circle cx="30" cy="10" r="2" fill="#4299E1"></circle>
        <circle cx="50" cy="10" r="2" fill="#4299E1"></circle>
        <circle cx="70" cy="10" r="2" fill="#4299E1"></circle>
        <circle cx="90" cy="10" r="2" fill="#4299E1"></circle>
        <circle cx="10" cy="30" r="2" fill="#4299E1"></circle>
        <circle cx="30" cy="30" r="2" fill="#4299E1"></circle>
        <circle cx="50" cy="30" r="2" fill="#4299E1"></circle>
        <circle cx="70" cy="30" r="2" fill="#4299E1"></circle>
        <circle cx="90" cy="30" r="2" fill="#4299E1"></circle>
        <circle cx="10" cy="50" r="2" fill="#4299E1"></circle>
        <circle cx="30" cy="50" r="2" fill="#4299E1"></circle>
        <circle cx="50" cy="50" r="2" fill="#4299E1"></circle>
        <circle cx="70" cy="50" r="2" fill="#4299E1"></circle>
        <circle cx="90" cy="50" r="2" fill="#4299E1"></circle>
        <circle cx="10" cy="70" r="2" fill="#4299E1"></circle>
        <circle cx="30" cy="70" r="2" fill="#4299E1"></circle>
        <circle cx="50" cy="70" r="2" fill="#4299E1"></circle>
        <circle cx="70" cy="70" r="2" fill="#4299E1"></circle>
        <circle cx="90" cy="70" r="2" fill="#4299E1"></circle>
        <circle cx="10" cy="90" r="2" fill="#4299E1"></circle>
        <circle cx="30" cy="90" r="2" fill="#4299E1"></circle>
        <circle cx="50" cy="90" r="2" fill="#4299E1"></circle>
        <circle cx="70" cy="90" r="2" fill="#4299E1"></circle>
        <circle cx="90" cy="90" r="2" fill="#4299E1"></circle>
    </g>
</svg>
